G04*
G04 #@! TF.GenerationSoftware,Altium Limited,CircuitStudio,1.5.1 (13)*
G04*
G04 Layer_Physical_Order=1*
G04 Layer_Color=11767835*
%FSLAX25Y25*%
%MOIN*%
G70*
G01*
G75*
%ADD10R,0.04331X0.03937*%
%ADD11R,0.03937X0.04331*%
G04:AMPARAMS|DCode=12|XSize=9.84mil|YSize=27.56mil|CornerRadius=2.46mil|HoleSize=0mil|Usage=FLASHONLY|Rotation=180.000|XOffset=0mil|YOffset=0mil|HoleType=Round|Shape=RoundedRectangle|*
%AMROUNDEDRECTD12*
21,1,0.00984,0.02264,0,0,180.0*
21,1,0.00492,0.02756,0,0,180.0*
1,1,0.00492,-0.00246,0.01132*
1,1,0.00492,0.00246,0.01132*
1,1,0.00492,0.00246,-0.01132*
1,1,0.00492,-0.00246,-0.01132*
%
%ADD12ROUNDEDRECTD12*%
%ADD13R,0.04724X0.00787*%
G04:AMPARAMS|DCode=14|XSize=31.89mil|YSize=10.24mil|CornerRadius=1.28mil|HoleSize=0mil|Usage=FLASHONLY|Rotation=180.000|XOffset=0mil|YOffset=0mil|HoleType=Round|Shape=RoundedRectangle|*
%AMROUNDEDRECTD14*
21,1,0.03189,0.00768,0,0,180.0*
21,1,0.02933,0.01024,0,0,180.0*
1,1,0.00256,-0.01467,0.00384*
1,1,0.00256,0.01467,0.00384*
1,1,0.00256,0.01467,-0.00384*
1,1,0.00256,-0.01467,-0.00384*
%
%ADD14ROUNDEDRECTD14*%
%ADD15R,0.05118X0.05906*%
%ADD16C,0.01000*%
%ADD17C,0.17716*%
%ADD18O,0.06000X0.08000*%
%ADD19R,0.06000X0.08000*%
%ADD20C,0.02756*%
G36*
X767717Y236220D02*
X511811D01*
Y354331D01*
X767717D01*
Y236220D01*
D02*
G37*
%LPC*%
G36*
X535447Y340051D02*
X526090D01*
Y330695D01*
X527523Y330836D01*
X529381Y331399D01*
X531094Y332315D01*
X532595Y333547D01*
X533827Y335048D01*
X534742Y336760D01*
X535306Y338619D01*
X535447Y340051D01*
D02*
G37*
G36*
X525091D02*
X515734D01*
X515875Y338619D01*
X516439Y336760D01*
X517354Y335048D01*
X518586Y333547D01*
X520087Y332315D01*
X521800Y331399D01*
X523658Y330836D01*
X525091Y330695D01*
Y340051D01*
D02*
G37*
G36*
X763794D02*
X754437D01*
Y330695D01*
X755870Y330836D01*
X757728Y331399D01*
X759441Y332315D01*
X760942Y333547D01*
X762174Y335048D01*
X763089Y336760D01*
X763653Y338619D01*
X763794Y340051D01*
D02*
G37*
G36*
X753437D02*
X744080D01*
X744221Y338619D01*
X744785Y336760D01*
X745701Y335048D01*
X746932Y333547D01*
X748434Y332315D01*
X750146Y331399D01*
X752004Y330836D01*
X753437Y330695D01*
Y340051D01*
D02*
G37*
G36*
X584264Y335051D02*
X580729D01*
Y334551D01*
X580867Y333507D01*
X581270Y332534D01*
X581911Y331698D01*
X582747Y331057D01*
X583720Y330654D01*
X584264Y330582D01*
Y335051D01*
D02*
G37*
G36*
X734264D02*
X730729D01*
Y334551D01*
X730867Y333507D01*
X731270Y332534D01*
X731911Y331698D01*
X732747Y331057D01*
X733720Y330654D01*
X734264Y330582D01*
Y335051D01*
D02*
G37*
G36*
X738798D02*
X735264D01*
Y330582D01*
X735808Y330654D01*
X736781Y331057D01*
X737617Y331698D01*
X738258Y332534D01*
X738661Y333507D01*
X738798Y334551D01*
Y335051D01*
D02*
G37*
G36*
X588798D02*
X585264D01*
Y330582D01*
X585808Y330654D01*
X586781Y331057D01*
X587617Y331698D01*
X588258Y332534D01*
X588661Y333507D01*
X588798Y334551D01*
Y335051D01*
D02*
G37*
G36*
X638798Y345051D02*
X634764D01*
X630729D01*
Y344551D01*
X630867Y343507D01*
X631270Y342534D01*
X631911Y341698D01*
X632747Y341057D01*
X633720Y340654D01*
X634119Y340602D01*
Y340097D01*
X633824Y340058D01*
X632948Y339696D01*
X632196Y339119D01*
X631619Y338367D01*
X631256Y337491D01*
X631133Y336551D01*
Y334551D01*
X631256Y333611D01*
X631619Y332736D01*
X632196Y331984D01*
X632948Y331407D01*
X633824Y331044D01*
X634764Y330920D01*
X635704Y331044D01*
X636579Y331407D01*
X637331Y331984D01*
X637908Y332736D01*
X638271Y333611D01*
X638395Y334551D01*
Y336551D01*
X638271Y337491D01*
X637908Y338367D01*
X637331Y339119D01*
X636579Y339696D01*
X635704Y340058D01*
X635409Y340097D01*
Y340602D01*
X635808Y340654D01*
X636781Y341057D01*
X637617Y341698D01*
X638258Y342534D01*
X638661Y343507D01*
X638798Y344551D01*
Y345051D01*
D02*
G37*
G36*
X624764Y340182D02*
X623824Y340058D01*
X622948Y339696D01*
X622196Y339119D01*
X621619Y338367D01*
X621256Y337491D01*
X621133Y336551D01*
Y334551D01*
X621256Y333611D01*
X621619Y332736D01*
X622196Y331984D01*
X622948Y331407D01*
X623824Y331044D01*
X624764Y330920D01*
X625704Y331044D01*
X626579Y331407D01*
X627331Y331984D01*
X627908Y332736D01*
X628271Y333611D01*
X628395Y334551D01*
Y336551D01*
X628271Y337491D01*
X627908Y338367D01*
X627331Y339119D01*
X626579Y339696D01*
X625704Y340058D01*
X624764Y340182D01*
D02*
G37*
G36*
X654764D02*
X653824Y340058D01*
X652948Y339696D01*
X652196Y339119D01*
X651619Y338367D01*
X651257Y337491D01*
X651133Y336551D01*
Y334551D01*
X651257Y333611D01*
X651619Y332736D01*
X652196Y331984D01*
X652948Y331407D01*
X653824Y331044D01*
X654764Y330920D01*
X655704Y331044D01*
X656579Y331407D01*
X657331Y331984D01*
X657908Y332736D01*
X658271Y333611D01*
X658395Y334551D01*
Y336551D01*
X658271Y337491D01*
X657908Y338367D01*
X657331Y339119D01*
X656579Y339696D01*
X655704Y340058D01*
X654764Y340182D01*
D02*
G37*
G36*
X644764D02*
X643824Y340058D01*
X642948Y339696D01*
X642196Y339119D01*
X641619Y338367D01*
X641257Y337491D01*
X641133Y336551D01*
Y334551D01*
X641257Y333611D01*
X641619Y332736D01*
X642196Y331984D01*
X642948Y331407D01*
X643824Y331044D01*
X644764Y330920D01*
X645704Y331044D01*
X646579Y331407D01*
X647331Y331984D01*
X647908Y332736D01*
X648271Y333611D01*
X648395Y334551D01*
Y336551D01*
X648271Y337491D01*
X647908Y338367D01*
X647331Y339119D01*
X646579Y339696D01*
X645704Y340058D01*
X644764Y340182D01*
D02*
G37*
G36*
X554764D02*
X553824Y340058D01*
X552948Y339696D01*
X552196Y339119D01*
X551619Y338367D01*
X551257Y337491D01*
X551133Y336551D01*
Y334551D01*
X551257Y333611D01*
X551619Y332736D01*
X552196Y331984D01*
X552948Y331407D01*
X553824Y331044D01*
X554764Y330920D01*
X555704Y331044D01*
X556579Y331407D01*
X557331Y331984D01*
X557908Y332736D01*
X558271Y333611D01*
X558395Y334551D01*
Y336551D01*
X558271Y337491D01*
X557908Y338367D01*
X557331Y339119D01*
X556579Y339696D01*
X555704Y340058D01*
X554764Y340182D01*
D02*
G37*
G36*
X608798Y345051D02*
X604764D01*
X600729D01*
Y344551D01*
X600867Y343507D01*
X601270Y342534D01*
X601911Y341698D01*
X602746Y341057D01*
X603720Y340654D01*
X604118Y340602D01*
Y340097D01*
X603824Y340058D01*
X602948Y339696D01*
X602196Y339119D01*
X601619Y338367D01*
X601257Y337491D01*
X601133Y336551D01*
Y334551D01*
X601257Y333611D01*
X601619Y332736D01*
X602196Y331984D01*
X602948Y331407D01*
X603095Y331346D01*
X602995Y330846D01*
X598890D01*
X597514Y332222D01*
X597908Y332736D01*
X598271Y333611D01*
X598395Y334551D01*
Y336551D01*
X598271Y337491D01*
X597908Y338367D01*
X597331Y339119D01*
X596579Y339696D01*
X595704Y340058D01*
X594764Y340182D01*
X593824Y340058D01*
X592948Y339696D01*
X592196Y339119D01*
X591619Y338367D01*
X591257Y337491D01*
X591133Y336551D01*
Y334551D01*
X591257Y333611D01*
X591262Y333597D01*
X585723Y328057D01*
X585480Y327693D01*
X585394Y327264D01*
X585394Y327264D01*
Y312697D01*
X585394Y312697D01*
X585480Y312268D01*
X585723Y311904D01*
X587199Y310427D01*
X587199Y310427D01*
X587563Y310184D01*
X587992Y310099D01*
X591634D01*
X591634Y310099D01*
X592063Y310184D01*
X592427Y310427D01*
X593313Y311313D01*
X593313Y311313D01*
X593556Y311677D01*
X593557Y311683D01*
X593912Y312048D01*
X594093Y312011D01*
X594242Y311982D01*
X594734D01*
X595064Y312048D01*
X595106Y312075D01*
X595472Y312193D01*
X595839Y312075D01*
X595881Y312048D01*
X596211Y311982D01*
X596703D01*
X597033Y312048D01*
X597313Y312234D01*
X597500Y312514D01*
X597565Y312844D01*
Y312855D01*
X600778D01*
Y311802D01*
X605915D01*
Y313445D01*
X606683D01*
Y311802D01*
X611821D01*
Y313445D01*
X612589D01*
Y311802D01*
X617726D01*
Y313447D01*
X618146Y313531D01*
X618510Y313774D01*
X620872Y316136D01*
X620872Y316136D01*
X621115Y316500D01*
X621200Y316929D01*
X621200Y316929D01*
Y327756D01*
X621200Y327756D01*
X621115Y328185D01*
X620872Y328549D01*
X620872Y328549D01*
X617377Y332044D01*
X617908Y332736D01*
X618271Y333611D01*
X618395Y334551D01*
Y336551D01*
X618271Y337491D01*
X617908Y338367D01*
X617331Y339119D01*
X616579Y339696D01*
X615704Y340058D01*
X614764Y340182D01*
X613824Y340058D01*
X612948Y339696D01*
X612196Y339119D01*
X611619Y338367D01*
X611257Y337491D01*
X611133Y336551D01*
Y334551D01*
X611257Y333611D01*
X611619Y332736D01*
X612196Y331984D01*
X612948Y331407D01*
X613824Y331044D01*
X614764Y330920D01*
X615263Y330986D01*
X618957Y327291D01*
Y317394D01*
X618188Y316624D01*
X617726Y316816D01*
Y317332D01*
X613253D01*
X613062Y317794D01*
X613762Y318495D01*
X617726D01*
Y324025D01*
X616238D01*
X616194Y324248D01*
X615950Y324612D01*
X615950Y324612D01*
X607873Y332689D01*
X607908Y332736D01*
X608271Y333611D01*
X608395Y334551D01*
Y336551D01*
X608271Y337491D01*
X607908Y338367D01*
X607331Y339119D01*
X606579Y339696D01*
X605704Y340058D01*
X605409Y340097D01*
Y340602D01*
X605808Y340654D01*
X606781Y341057D01*
X607617Y341698D01*
X608258Y342534D01*
X608661Y343507D01*
X608798Y344551D01*
Y345051D01*
D02*
G37*
G36*
X574764Y340182D02*
X573824Y340058D01*
X572948Y339696D01*
X572196Y339119D01*
X571619Y338367D01*
X571256Y337491D01*
X571133Y336551D01*
Y334551D01*
X571256Y333611D01*
X571619Y332736D01*
X572196Y331984D01*
X572948Y331407D01*
X573824Y331044D01*
X574764Y330920D01*
X575704Y331044D01*
X576579Y331407D01*
X577331Y331984D01*
X577908Y332736D01*
X578271Y333611D01*
X578395Y334551D01*
Y336551D01*
X578271Y337491D01*
X577908Y338367D01*
X577331Y339119D01*
X576579Y339696D01*
X575704Y340058D01*
X574764Y340182D01*
D02*
G37*
G36*
X568798Y345051D02*
X564764D01*
X560729D01*
Y344551D01*
X560867Y343507D01*
X561270Y342534D01*
X561911Y341698D01*
X562746Y341057D01*
X563720Y340654D01*
X564118Y340602D01*
Y340097D01*
X563824Y340058D01*
X562948Y339696D01*
X562196Y339119D01*
X561619Y338367D01*
X561257Y337491D01*
X561133Y336551D01*
Y334551D01*
X561257Y333611D01*
X561619Y332736D01*
X562196Y331984D01*
X562948Y331407D01*
X563824Y331044D01*
X564764Y330920D01*
X565704Y331044D01*
X566579Y331407D01*
X567331Y331984D01*
X567908Y332736D01*
X568271Y333611D01*
X568395Y334551D01*
Y336551D01*
X568271Y337491D01*
X567908Y338367D01*
X567331Y339119D01*
X566579Y339696D01*
X565704Y340058D01*
X565409Y340097D01*
Y340602D01*
X565808Y340654D01*
X566781Y341057D01*
X567617Y341698D01*
X568258Y342534D01*
X568661Y343507D01*
X568798Y344551D01*
Y345051D01*
D02*
G37*
G36*
X526090Y259857D02*
Y250500D01*
X535447D01*
X535306Y251933D01*
X534742Y253791D01*
X533827Y255504D01*
X532595Y257005D01*
X531094Y258237D01*
X529381Y259152D01*
X527523Y259716D01*
X526090Y259857D01*
D02*
G37*
G36*
X525091D02*
X523658Y259716D01*
X521800Y259152D01*
X520087Y258237D01*
X518586Y257005D01*
X517354Y255504D01*
X516439Y253791D01*
X515875Y251933D01*
X515734Y250500D01*
X525091D01*
Y259857D01*
D02*
G37*
G36*
X754437D02*
Y250500D01*
X763794D01*
X763653Y251933D01*
X763089Y253791D01*
X762174Y255504D01*
X760942Y257005D01*
X759441Y258237D01*
X757728Y259152D01*
X755870Y259716D01*
X754437Y259857D01*
D02*
G37*
G36*
X753437D02*
X752004Y259716D01*
X750146Y259152D01*
X748434Y258237D01*
X746932Y257005D01*
X745701Y255504D01*
X744785Y253791D01*
X744221Y251933D01*
X744080Y250500D01*
X753437D01*
Y259857D01*
D02*
G37*
G36*
X535447Y249500D02*
X526090D01*
Y240143D01*
X527523Y240284D01*
X529381Y240848D01*
X531094Y241763D01*
X532595Y242995D01*
X533827Y244496D01*
X534742Y246209D01*
X535306Y248067D01*
X535447Y249500D01*
D02*
G37*
G36*
X525091D02*
X515734D01*
X515875Y248067D01*
X516439Y246209D01*
X517354Y244496D01*
X518586Y242995D01*
X520087Y241763D01*
X521800Y240848D01*
X523658Y240284D01*
X525091Y240143D01*
Y249500D01*
D02*
G37*
G36*
X763794D02*
X754437D01*
Y240143D01*
X755870Y240284D01*
X757728Y240848D01*
X759441Y241763D01*
X760942Y242995D01*
X762174Y244496D01*
X763089Y246209D01*
X763653Y248067D01*
X763794Y249500D01*
D02*
G37*
G36*
X753437D02*
X744080D01*
X744221Y248067D01*
X744785Y246209D01*
X745701Y244496D01*
X746932Y242995D01*
X748434Y241763D01*
X750146Y240848D01*
X752004Y240284D01*
X753437Y240143D01*
Y249500D01*
D02*
G37*
G36*
X741078Y316429D02*
X738984D01*
Y315395D01*
X739951D01*
X740391Y315483D01*
X740764Y315732D01*
X741013Y316105D01*
X741078Y316429D01*
D02*
G37*
G36*
X737984Y324369D02*
X737018D01*
X736578Y324281D01*
X736204Y324032D01*
X736073Y323835D01*
X733276D01*
Y319882D01*
Y315929D01*
X736073D01*
X736204Y315732D01*
X736578Y315483D01*
X737018Y315395D01*
X737984D01*
Y316929D01*
X738484D01*
Y317429D01*
X741078D01*
X741013Y317753D01*
X740764Y318126D01*
X740628Y318217D01*
X740636Y318230D01*
X740693Y318514D01*
Y319282D01*
X740636Y319566D01*
X740476Y319806D01*
Y319957D01*
X740636Y320198D01*
X740693Y320482D01*
Y321250D01*
X740636Y321534D01*
X740628Y321547D01*
X740764Y321638D01*
X741013Y322011D01*
X741078Y322335D01*
X738484D01*
Y322835D01*
X737984D01*
Y324369D01*
D02*
G37*
G36*
X708798Y345051D02*
X704764D01*
X700729D01*
Y344551D01*
X700867Y343507D01*
X701270Y342534D01*
X701911Y341698D01*
X702746Y341057D01*
X703720Y340654D01*
X704118Y340602D01*
Y340097D01*
X703824Y340058D01*
X702948Y339696D01*
X702196Y339119D01*
X701619Y338367D01*
X701257Y337491D01*
X701133Y336551D01*
Y334551D01*
X701257Y333611D01*
X701619Y332736D01*
X702196Y331984D01*
X702948Y331407D01*
X703824Y331044D01*
X704764Y330920D01*
X705704Y331044D01*
X706579Y331407D01*
X707042Y331761D01*
X712702Y326101D01*
X712483Y325613D01*
X712323Y325622D01*
X712249Y325638D01*
X712013Y325990D01*
X712013Y325990D01*
X708569Y329435D01*
X708205Y329678D01*
X707776Y329763D01*
X707775Y329763D01*
X701154D01*
X697988Y332928D01*
X698271Y333611D01*
X698395Y334551D01*
Y336551D01*
X698271Y337491D01*
X697908Y338367D01*
X697331Y339119D01*
X696579Y339696D01*
X695704Y340058D01*
X694764Y340182D01*
X693824Y340058D01*
X692948Y339696D01*
X692196Y339119D01*
X691619Y338367D01*
X691257Y337491D01*
X691133Y336551D01*
Y334551D01*
X691257Y333611D01*
X691619Y332736D01*
X692196Y331984D01*
X692948Y331407D01*
X693824Y331044D01*
X694764Y330920D01*
X695704Y331044D01*
X696409Y331336D01*
X699896Y327849D01*
X699896Y327849D01*
X700260Y327606D01*
X700689Y327520D01*
X700689Y327520D01*
X707311D01*
X708966Y325865D01*
X708775Y325403D01*
X708455D01*
Y320266D01*
X710099D01*
Y317529D01*
X708455D01*
Y312392D01*
X710101D01*
X710184Y311972D01*
X710427Y311609D01*
X712790Y309246D01*
X713154Y309003D01*
X713583Y308918D01*
X713583Y308918D01*
X721457D01*
X721457Y308918D01*
X721886Y309003D01*
X722250Y309246D01*
X722905Y309902D01*
X727156D01*
Y308455D01*
X732687D01*
Y313592D01*
X730751D01*
X730452Y313976D01*
X730367Y314406D01*
X730124Y314769D01*
X730124Y314770D01*
X729464Y315429D01*
X729671Y315929D01*
X732276D01*
Y319882D01*
Y323835D01*
X729217D01*
X729216Y323835D01*
X728751Y323918D01*
X728534Y323961D01*
X725600D01*
X725578Y323956D01*
X720679D01*
Y325403D01*
X719626D01*
Y328740D01*
X719540Y329169D01*
X719297Y329533D01*
X719297Y329533D01*
X717302Y331529D01*
X717331Y331984D01*
X717908Y332736D01*
X718271Y333611D01*
X718395Y334551D01*
Y336551D01*
X718271Y337491D01*
X717908Y338367D01*
X717331Y339119D01*
X716579Y339696D01*
X715704Y340058D01*
X714764Y340182D01*
X713824Y340058D01*
X712948Y339696D01*
X712196Y339119D01*
X711619Y338367D01*
X711257Y337491D01*
X711133Y336551D01*
Y334551D01*
X711257Y333611D01*
X711619Y332736D01*
X712196Y331984D01*
X712948Y331407D01*
X713824Y331044D01*
X714734Y330924D01*
X717382Y328276D01*
Y325403D01*
X715607D01*
Y325903D01*
X715607Y325903D01*
X715522Y326332D01*
X715279Y326696D01*
X708282Y333693D01*
X708395Y334551D01*
Y336551D01*
X708271Y337491D01*
X707908Y338367D01*
X707331Y339119D01*
X706579Y339696D01*
X705704Y340058D01*
X705409Y340097D01*
Y340602D01*
X705808Y340654D01*
X706781Y341057D01*
X707617Y341698D01*
X708258Y342534D01*
X708661Y343507D01*
X708798Y344551D01*
Y345051D01*
D02*
G37*
G36*
X739951Y324369D02*
X738984D01*
Y323335D01*
X741078D01*
X741013Y323659D01*
X740764Y324032D01*
X740391Y324281D01*
X739951Y324369D01*
D02*
G37*
G36*
X739780Y310524D02*
X737114D01*
Y308055D01*
X739780D01*
Y310524D01*
D02*
G37*
G36*
X736114D02*
X733449D01*
Y308055D01*
X736114D01*
Y310524D01*
D02*
G37*
G36*
X739780Y313992D02*
X737114D01*
Y311524D01*
X739780D01*
Y313992D01*
D02*
G37*
G36*
X736114D02*
X733449D01*
Y311524D01*
X736114D01*
Y313992D01*
D02*
G37*
G36*
X564264Y350520D02*
X563720Y350448D01*
X562746Y350045D01*
X561911Y349404D01*
X561270Y348568D01*
X560867Y347595D01*
X560729Y346551D01*
Y346051D01*
X564264D01*
Y350520D01*
D02*
G37*
G36*
X754437Y350408D02*
Y341051D01*
X763794D01*
X763653Y342484D01*
X763089Y344342D01*
X762174Y346055D01*
X760942Y347556D01*
X759441Y348788D01*
X757728Y349703D01*
X755870Y350267D01*
X754437Y350408D01*
D02*
G37*
G36*
X634264Y350520D02*
X633720Y350448D01*
X632747Y350045D01*
X631911Y349404D01*
X631270Y348568D01*
X630867Y347595D01*
X630729Y346551D01*
Y346051D01*
X634264D01*
Y350520D01*
D02*
G37*
G36*
X604264D02*
X603720Y350448D01*
X602746Y350045D01*
X601911Y349404D01*
X601270Y348568D01*
X600867Y347595D01*
X600729Y346551D01*
Y346051D01*
X604264D01*
Y350520D01*
D02*
G37*
G36*
X525091Y350408D02*
X523658Y350267D01*
X521800Y349703D01*
X520087Y348788D01*
X518586Y347556D01*
X517354Y346055D01*
X516439Y344342D01*
X515875Y342484D01*
X515734Y341051D01*
X525091D01*
Y350408D01*
D02*
G37*
G36*
X724764Y350182D02*
X723824Y350059D01*
X722948Y349696D01*
X722196Y349119D01*
X721619Y348367D01*
X721256Y347491D01*
X721133Y346551D01*
Y344551D01*
X721256Y343611D01*
X721619Y342736D01*
X722196Y341984D01*
X722948Y341407D01*
X723824Y341044D01*
X724764Y340920D01*
X725704Y341044D01*
X726579Y341407D01*
X727331Y341984D01*
X727908Y342736D01*
X728271Y343611D01*
X728395Y344551D01*
Y346551D01*
X728271Y347491D01*
X727908Y348367D01*
X727331Y349119D01*
X726579Y349696D01*
X725704Y350059D01*
X724764Y350182D01*
D02*
G37*
G36*
X753437Y350408D02*
X752004Y350267D01*
X750146Y349703D01*
X748434Y348788D01*
X746932Y347556D01*
X745701Y346055D01*
X744785Y344342D01*
X744221Y342484D01*
X744080Y341051D01*
X753437D01*
Y350408D01*
D02*
G37*
G36*
X526090D02*
Y341051D01*
X535447D01*
X535306Y342484D01*
X534742Y344342D01*
X533827Y346055D01*
X532595Y347556D01*
X531094Y348788D01*
X529381Y349703D01*
X527523Y350267D01*
X526090Y350408D01*
D02*
G37*
G36*
X685264Y350520D02*
Y346051D01*
X688798D01*
Y346551D01*
X688661Y347595D01*
X688258Y348568D01*
X687617Y349404D01*
X686781Y350045D01*
X685808Y350448D01*
X685264Y350520D01*
D02*
G37*
G36*
X635264D02*
Y346051D01*
X638798D01*
Y346551D01*
X638661Y347595D01*
X638258Y348568D01*
X637617Y349404D01*
X636781Y350045D01*
X635808Y350448D01*
X635264Y350520D01*
D02*
G37*
G36*
X554764Y350182D02*
X553824Y350059D01*
X552948Y349696D01*
X552196Y349119D01*
X551619Y348367D01*
X551257Y347491D01*
X551149Y346673D01*
X548379D01*
X548271Y347491D01*
X547908Y348367D01*
X547331Y349119D01*
X546579Y349696D01*
X545704Y350059D01*
X544764Y350182D01*
X543824Y350059D01*
X542948Y349696D01*
X542196Y349119D01*
X541619Y348367D01*
X541257Y347491D01*
X541133Y346551D01*
Y344551D01*
X541257Y343611D01*
X541619Y342736D01*
X542196Y341984D01*
X542948Y341407D01*
X543824Y341044D01*
X544764Y340920D01*
X545704Y341044D01*
X546579Y341407D01*
X547331Y341984D01*
X547908Y342736D01*
X548271Y343611D01*
X548379Y344430D01*
X551149D01*
X551257Y343611D01*
X551619Y342736D01*
X552196Y341984D01*
X552948Y341407D01*
X553824Y341044D01*
X554764Y340920D01*
X555704Y341044D01*
X556579Y341407D01*
X557331Y341984D01*
X557908Y342736D01*
X558271Y343611D01*
X558395Y344551D01*
Y346551D01*
X558271Y347491D01*
X557908Y348367D01*
X557331Y349119D01*
X556579Y349696D01*
X555704Y350059D01*
X554764Y350182D01*
D02*
G37*
G36*
X705264Y350520D02*
Y346051D01*
X708798D01*
Y346551D01*
X708661Y347595D01*
X708258Y348568D01*
X707617Y349404D01*
X706781Y350045D01*
X705808Y350448D01*
X705264Y350520D01*
D02*
G37*
G36*
X704264Y350520D02*
X703720Y350448D01*
X702746Y350045D01*
X701911Y349404D01*
X701270Y348568D01*
X700867Y347595D01*
X700729Y346551D01*
Y346051D01*
X704264D01*
Y350520D01*
D02*
G37*
G36*
X684264D02*
X683720Y350448D01*
X682747Y350045D01*
X681911Y349404D01*
X681270Y348568D01*
X680867Y347595D01*
X680729Y346551D01*
Y346051D01*
X684264D01*
Y350520D01*
D02*
G37*
G36*
X605264Y350520D02*
Y346051D01*
X608798D01*
Y346551D01*
X608661Y347595D01*
X608258Y348568D01*
X607617Y349404D01*
X606781Y350045D01*
X605808Y350448D01*
X605264Y350520D01*
D02*
G37*
G36*
X565264D02*
Y346051D01*
X568798D01*
Y346551D01*
X568661Y347595D01*
X568258Y348568D01*
X567617Y349404D01*
X566781Y350045D01*
X565808Y350448D01*
X565264Y350520D01*
D02*
G37*
G36*
X714764Y350182D02*
X713824Y350059D01*
X712948Y349696D01*
X712196Y349119D01*
X711619Y348367D01*
X711257Y347491D01*
X711133Y346551D01*
Y344551D01*
X711257Y343611D01*
X711619Y342736D01*
X712196Y341984D01*
X712948Y341407D01*
X713824Y341044D01*
X714764Y340920D01*
X715704Y341044D01*
X716579Y341407D01*
X717331Y341984D01*
X717908Y342736D01*
X718271Y343611D01*
X718395Y344551D01*
Y346551D01*
X718271Y347491D01*
X717908Y348367D01*
X717331Y349119D01*
X716579Y349696D01*
X715704Y350059D01*
X714764Y350182D01*
D02*
G37*
G36*
X574764D02*
X573824Y350059D01*
X572948Y349696D01*
X572196Y349119D01*
X571619Y348367D01*
X571256Y347491D01*
X571133Y346551D01*
Y344551D01*
X571256Y343611D01*
X571619Y342736D01*
X572196Y341984D01*
X572948Y341407D01*
X573824Y341044D01*
X574764Y340920D01*
X575704Y341044D01*
X576579Y341407D01*
X577331Y341984D01*
X577908Y342736D01*
X578271Y343611D01*
X578395Y344551D01*
Y346551D01*
X578271Y347491D01*
X577908Y348367D01*
X577331Y349119D01*
X576579Y349696D01*
X575704Y350059D01*
X574764Y350182D01*
D02*
G37*
G36*
X734764D02*
X733824Y350059D01*
X732948Y349696D01*
X732196Y349119D01*
X731619Y348367D01*
X731256Y347491D01*
X731133Y346551D01*
Y344551D01*
X731256Y343611D01*
X731619Y342736D01*
X732196Y341984D01*
X732948Y341407D01*
X733824Y341044D01*
X734119Y341005D01*
Y340501D01*
X733720Y340448D01*
X732747Y340045D01*
X731911Y339404D01*
X731270Y338568D01*
X730867Y337595D01*
X730729Y336551D01*
Y336051D01*
X734764D01*
X738798D01*
Y336551D01*
X738661Y337595D01*
X738258Y338568D01*
X737617Y339404D01*
X736781Y340045D01*
X735808Y340448D01*
X735409Y340501D01*
Y341005D01*
X735704Y341044D01*
X736579Y341407D01*
X737331Y341984D01*
X737908Y342736D01*
X738271Y343611D01*
X738395Y344551D01*
Y346551D01*
X738271Y347491D01*
X737908Y348367D01*
X737331Y349119D01*
X736579Y349696D01*
X735704Y350059D01*
X734764Y350182D01*
D02*
G37*
G36*
X594764D02*
X593824Y350059D01*
X592948Y349696D01*
X592196Y349119D01*
X591619Y348367D01*
X591257Y347491D01*
X591133Y346551D01*
Y344551D01*
X591257Y343611D01*
X591619Y342736D01*
X592196Y341984D01*
X592948Y341407D01*
X593824Y341044D01*
X594764Y340920D01*
X595704Y341044D01*
X596579Y341407D01*
X597331Y341984D01*
X597908Y342736D01*
X598271Y343611D01*
X598395Y344551D01*
Y346551D01*
X598271Y347491D01*
X597908Y348367D01*
X597331Y349119D01*
X596579Y349696D01*
X595704Y350059D01*
X594764Y350182D01*
D02*
G37*
G36*
X624764D02*
X623824Y350059D01*
X622948Y349696D01*
X622196Y349119D01*
X621619Y348367D01*
X621256Y347491D01*
X621133Y346551D01*
Y344551D01*
X621256Y343611D01*
X621619Y342736D01*
X622196Y341984D01*
X622948Y341407D01*
X623824Y341044D01*
X624764Y340920D01*
X625704Y341044D01*
X626579Y341407D01*
X627331Y341984D01*
X627908Y342736D01*
X628271Y343611D01*
X628395Y344551D01*
Y346551D01*
X628271Y347491D01*
X627908Y348367D01*
X627331Y349119D01*
X626579Y349696D01*
X625704Y350059D01*
X624764Y350182D01*
D02*
G37*
G36*
X614764D02*
X613824Y350059D01*
X612948Y349696D01*
X612196Y349119D01*
X611619Y348367D01*
X611257Y347491D01*
X611133Y346551D01*
Y344551D01*
X611257Y343611D01*
X611619Y342736D01*
X612196Y341984D01*
X612948Y341407D01*
X613824Y341044D01*
X614764Y340920D01*
X615704Y341044D01*
X616579Y341407D01*
X617331Y341984D01*
X617908Y342736D01*
X618271Y343611D01*
X618395Y344551D01*
Y346551D01*
X618271Y347491D01*
X617908Y348367D01*
X617331Y349119D01*
X616579Y349696D01*
X615704Y350059D01*
X614764Y350182D01*
D02*
G37*
G36*
X584764D02*
X583824Y350059D01*
X582948Y349696D01*
X582196Y349119D01*
X581619Y348367D01*
X581256Y347491D01*
X581133Y346551D01*
Y344551D01*
X581256Y343611D01*
X581619Y342736D01*
X582196Y341984D01*
X582948Y341407D01*
X583824Y341044D01*
X584119Y341005D01*
Y340501D01*
X583720Y340448D01*
X582747Y340045D01*
X581911Y339404D01*
X581270Y338568D01*
X580867Y337595D01*
X580729Y336551D01*
Y336051D01*
X584764D01*
X588798D01*
Y336551D01*
X588661Y337595D01*
X588258Y338568D01*
X587617Y339404D01*
X586781Y340045D01*
X585808Y340448D01*
X585409Y340501D01*
Y341005D01*
X585704Y341044D01*
X586579Y341407D01*
X587331Y341984D01*
X587908Y342736D01*
X588271Y343611D01*
X588395Y344551D01*
Y346551D01*
X588271Y347491D01*
X587908Y348367D01*
X587331Y349119D01*
X586579Y349696D01*
X585704Y350059D01*
X584764Y350182D01*
D02*
G37*
G36*
X674764Y340182D02*
X673824Y340058D01*
X672948Y339696D01*
X672196Y339119D01*
X671619Y338367D01*
X671256Y337491D01*
X671133Y336551D01*
Y334551D01*
X671256Y333611D01*
X671619Y332736D01*
X672196Y331984D01*
X672948Y331407D01*
X673824Y331044D01*
X674764Y330920D01*
X675704Y331044D01*
X676579Y331407D01*
X677331Y331984D01*
X677908Y332736D01*
X678271Y333611D01*
X678395Y334551D01*
Y336551D01*
X678271Y337491D01*
X677908Y338367D01*
X677331Y339119D01*
X676579Y339696D01*
X675704Y340058D01*
X674764Y340182D01*
D02*
G37*
G36*
X664764D02*
X663824Y340058D01*
X662948Y339696D01*
X662196Y339119D01*
X661619Y338367D01*
X661257Y337491D01*
X661133Y336551D01*
Y334551D01*
X661257Y333611D01*
X661619Y332736D01*
X662196Y331984D01*
X662948Y331407D01*
X663824Y331044D01*
X664764Y330920D01*
X665704Y331044D01*
X666579Y331407D01*
X667331Y331984D01*
X667908Y332736D01*
X668271Y333611D01*
X668395Y334551D01*
Y336551D01*
X668271Y337491D01*
X667908Y338367D01*
X667331Y339119D01*
X666579Y339696D01*
X665704Y340058D01*
X664764Y340182D01*
D02*
G37*
G36*
X688798Y345051D02*
X684764D01*
X680729D01*
Y344551D01*
X680867Y343507D01*
X681270Y342534D01*
X681911Y341698D01*
X682747Y341057D01*
X683720Y340654D01*
X684119Y340602D01*
Y340097D01*
X683824Y340058D01*
X682948Y339696D01*
X682196Y339119D01*
X681619Y338367D01*
X681256Y337491D01*
X681133Y336551D01*
Y334551D01*
X681256Y333611D01*
X681619Y332736D01*
X682196Y331984D01*
X682948Y331407D01*
X683824Y331044D01*
X684764Y330920D01*
X685704Y331044D01*
X686579Y331407D01*
X687331Y331984D01*
X687908Y332736D01*
X688271Y333611D01*
X688395Y334551D01*
Y336551D01*
X688271Y337491D01*
X687908Y338367D01*
X687331Y339119D01*
X686579Y339696D01*
X685704Y340058D01*
X685409Y340097D01*
Y340602D01*
X685808Y340654D01*
X686781Y341057D01*
X687617Y341698D01*
X688258Y342534D01*
X688661Y343507D01*
X688798Y344551D01*
Y345051D01*
D02*
G37*
G36*
X548364Y340151D02*
X541164D01*
Y330951D01*
X548364D01*
Y340151D01*
D02*
G37*
G36*
X724764Y340182D02*
X723824Y340058D01*
X722948Y339696D01*
X722196Y339119D01*
X721619Y338367D01*
X721256Y337491D01*
X721133Y336551D01*
Y334551D01*
X721256Y333611D01*
X721619Y332736D01*
X722196Y331984D01*
X722948Y331407D01*
X723824Y331044D01*
X724764Y330920D01*
X725704Y331044D01*
X726579Y331407D01*
X727331Y331984D01*
X727908Y332736D01*
X728271Y333611D01*
X728395Y334551D01*
Y336551D01*
X728271Y337491D01*
X727908Y338367D01*
X727331Y339119D01*
X726579Y339696D01*
X725704Y340058D01*
X724764Y340182D01*
D02*
G37*
G36*
X644764Y350182D02*
X643824Y350059D01*
X642948Y349696D01*
X642196Y349119D01*
X641619Y348367D01*
X641257Y347491D01*
X641133Y346551D01*
Y344551D01*
X641257Y343611D01*
X641619Y342736D01*
X642196Y341984D01*
X642948Y341407D01*
X643824Y341044D01*
X644764Y340920D01*
X645704Y341044D01*
X646579Y341407D01*
X647331Y341984D01*
X647908Y342736D01*
X648271Y343611D01*
X648395Y344551D01*
Y346551D01*
X648271Y347491D01*
X647908Y348367D01*
X647331Y349119D01*
X646579Y349696D01*
X645704Y350059D01*
X644764Y350182D01*
D02*
G37*
G36*
X674764D02*
X673824Y350059D01*
X672948Y349696D01*
X672196Y349119D01*
X671619Y348367D01*
X671256Y347491D01*
X671133Y346551D01*
Y344551D01*
X671256Y343611D01*
X671619Y342736D01*
X672196Y341984D01*
X672948Y341407D01*
X673824Y341044D01*
X674764Y340920D01*
X675704Y341044D01*
X676579Y341407D01*
X677331Y341984D01*
X677908Y342736D01*
X678271Y343611D01*
X678395Y344551D01*
Y346551D01*
X678271Y347491D01*
X677908Y348367D01*
X677331Y349119D01*
X676579Y349696D01*
X675704Y350059D01*
X674764Y350182D01*
D02*
G37*
G36*
X694764D02*
X693824Y350059D01*
X692948Y349696D01*
X692196Y349119D01*
X691619Y348367D01*
X691257Y347491D01*
X691133Y346551D01*
Y344551D01*
X691257Y343611D01*
X691619Y342736D01*
X692196Y341984D01*
X692948Y341407D01*
X693824Y341044D01*
X694764Y340920D01*
X695704Y341044D01*
X696579Y341407D01*
X697331Y341984D01*
X697908Y342736D01*
X698271Y343611D01*
X698395Y344551D01*
Y346551D01*
X698271Y347491D01*
X697908Y348367D01*
X697331Y349119D01*
X696579Y349696D01*
X695704Y350059D01*
X694764Y350182D01*
D02*
G37*
G36*
X664764D02*
X663824Y350059D01*
X662948Y349696D01*
X662196Y349119D01*
X661619Y348367D01*
X661257Y347491D01*
X661133Y346551D01*
Y344551D01*
X661257Y343611D01*
X661619Y342736D01*
X662196Y341984D01*
X662948Y341407D01*
X663824Y341044D01*
X664764Y340920D01*
X665704Y341044D01*
X666579Y341407D01*
X667331Y341984D01*
X667908Y342736D01*
X668271Y343611D01*
X668395Y344551D01*
Y346551D01*
X668271Y347491D01*
X667908Y348367D01*
X667331Y349119D01*
X666579Y349696D01*
X665704Y350059D01*
X664764Y350182D01*
D02*
G37*
G36*
X654764D02*
X653824Y350059D01*
X652948Y349696D01*
X652196Y349119D01*
X651619Y348367D01*
X651257Y347491D01*
X651133Y346551D01*
Y344551D01*
X651257Y343611D01*
X651619Y342736D01*
X652196Y341984D01*
X652948Y341407D01*
X653824Y341044D01*
X654764Y340920D01*
X655704Y341044D01*
X656579Y341407D01*
X657331Y341984D01*
X657908Y342736D01*
X658271Y343611D01*
X658395Y344551D01*
Y346551D01*
X658271Y347491D01*
X657908Y348367D01*
X657331Y349119D01*
X656579Y349696D01*
X655704Y350059D01*
X654764Y350182D01*
D02*
G37*
%LPD*%
G36*
X592948Y331407D02*
X593824Y331044D01*
X594764Y330920D01*
X595541Y331022D01*
X597632Y328931D01*
X597996Y328688D01*
X598425Y328603D01*
X598425Y328603D01*
X604850D01*
X608130Y325323D01*
Y324379D01*
X607777Y324025D01*
X606683D01*
X606315Y324343D01*
Y324425D01*
X603847D01*
Y321260D01*
X603346D01*
Y320760D01*
X600333D01*
X599916Y320587D01*
X599533Y320970D01*
X599169Y321213D01*
X598740Y321299D01*
X598740Y321299D01*
X598355D01*
X597953Y321799D01*
X597973Y321900D01*
Y322532D01*
X596457D01*
Y323031D01*
X595957D01*
Y325383D01*
X595724Y325337D01*
X595312Y325062D01*
X595272Y325002D01*
X595064Y324960D01*
X594734Y325026D01*
X594242D01*
X593912Y324960D01*
X593871Y324933D01*
X593504Y324815D01*
X593137Y324933D01*
X593096Y324960D01*
X592766Y325026D01*
X592274D01*
X591944Y324960D01*
X591902Y324933D01*
X591535Y324815D01*
X591169Y324933D01*
X591127Y324960D01*
X590797Y325026D01*
X590305D01*
X589975Y324960D01*
X589695Y324773D01*
X589508Y324494D01*
X589442Y324163D01*
Y321900D01*
X589508Y321569D01*
X589695Y321290D01*
X589975Y321103D01*
X590305Y321037D01*
X590797D01*
X591127Y321103D01*
X591169Y321130D01*
X591535Y321248D01*
X591902Y321130D01*
X591944Y321103D01*
X592274Y321037D01*
X592766D01*
X593096Y321103D01*
X593678Y320911D01*
X593695Y320886D01*
X594221Y320360D01*
X594030Y319898D01*
X594004D01*
Y319004D01*
X596866D01*
Y319056D01*
X598275D01*
X600129Y317201D01*
X600493Y316958D01*
X600778Y316902D01*
Y315098D01*
X597565D01*
Y315108D01*
X597500Y315438D01*
X597313Y315718D01*
X597033Y315905D01*
X596703Y315971D01*
X596211D01*
X595881Y315905D01*
X595839Y315878D01*
X595472Y315759D01*
X595106Y315878D01*
X595064Y315905D01*
X594734Y315971D01*
X594242D01*
X593912Y315905D01*
X593871Y315878D01*
X593504Y315759D01*
X593137Y315878D01*
X593096Y315905D01*
X592766Y315971D01*
X592274D01*
X591944Y315905D01*
X591902Y315878D01*
X591535Y315759D01*
X591169Y315878D01*
X591127Y315905D01*
X590797Y315971D01*
X590305D01*
X589975Y315905D01*
X589695Y315718D01*
X589508Y315438D01*
X589442Y315108D01*
Y312844D01*
X589443Y312842D01*
X589068Y312342D01*
X588457D01*
X587637Y313161D01*
Y326799D01*
X592550Y331712D01*
X592948Y331407D01*
D02*
G37*
G36*
X713450Y319854D02*
X713693Y319491D01*
X715193Y317991D01*
X715148Y317529D01*
X715148D01*
X715148Y317529D01*
Y312392D01*
X720679D01*
Y315549D01*
X723950Y318821D01*
X724450Y318614D01*
Y318514D01*
X724538Y318074D01*
X724787Y317701D01*
X724923Y317610D01*
X724915Y317597D01*
X724858Y317313D01*
Y316545D01*
X724915Y316261D01*
X725076Y316020D01*
X725316Y315860D01*
X725600Y315803D01*
X725956D01*
X726438Y315748D01*
X726523Y315319D01*
X726766Y314955D01*
X727667Y314054D01*
X727476Y313592D01*
X727156D01*
Y312145D01*
X722441D01*
X722441Y312145D01*
X722012Y312060D01*
X721648Y311817D01*
X720992Y311161D01*
X714047D01*
X713278Y311930D01*
X713469Y312392D01*
X713986D01*
Y317529D01*
X712342D01*
Y320266D01*
X713368D01*
X713450Y319854D01*
D02*
G37*
%LPC*%
G36*
X596957Y325383D02*
Y323532D01*
X597973D01*
Y324163D01*
X597877Y324650D01*
X597601Y325062D01*
X597189Y325337D01*
X596957Y325383D01*
D02*
G37*
G36*
X602846Y324425D02*
X600378D01*
Y321760D01*
X602846D01*
Y324425D01*
D02*
G37*
G36*
X593004Y318004D02*
X590142D01*
Y317110D01*
X593004D01*
Y318004D01*
D02*
G37*
G36*
X596866D02*
X594004D01*
Y317110D01*
X596866D01*
Y318004D01*
D02*
G37*
G36*
X593004Y319898D02*
X590142D01*
Y319004D01*
X593004D01*
Y319898D01*
D02*
G37*
%LPD*%
D10*
X736614Y311024D02*
D03*
X729921D02*
D03*
X717913Y314961D02*
D03*
X711221D02*
D03*
X717913Y322835D02*
D03*
X711221D02*
D03*
D11*
X615158Y314567D02*
D03*
Y321260D02*
D03*
X609252Y314567D02*
D03*
Y321260D02*
D03*
X603346Y321260D02*
D03*
Y314567D02*
D03*
D12*
X596457Y313976D02*
D03*
X594488D02*
D03*
X592520D02*
D03*
X590551D02*
D03*
Y323031D02*
D03*
X592520D02*
D03*
X594488D02*
D03*
X596457D02*
D03*
D13*
X593504Y318504D02*
D03*
D14*
X738484Y316929D02*
D03*
Y318898D02*
D03*
Y320866D02*
D03*
Y322835D02*
D03*
X727067D02*
D03*
Y320866D02*
D03*
Y318898D02*
D03*
Y316929D02*
D03*
D15*
X732776Y319882D02*
D03*
D16*
X724409Y320866D02*
X727559D01*
X718504Y314961D02*
X724409Y320866D01*
X714764Y332480D02*
Y335551D01*
Y332480D02*
X718504Y328740D01*
Y323819D02*
Y328740D01*
Y323819D02*
X719488Y322835D01*
X727559D01*
X721457Y310039D02*
X722441Y311024D01*
X713583Y310039D02*
X721457D01*
X711221Y312402D02*
X713583Y310039D01*
X711221Y312402D02*
Y314961D01*
X727559Y315748D02*
Y316929D01*
Y315748D02*
X729331Y313976D01*
Y311024D02*
Y313976D01*
X722441Y311024D02*
X729331D01*
X544764Y345551D02*
X554764D01*
X615158Y321260D02*
Y323819D01*
X604764Y334213D02*
X615158Y323819D01*
X604764Y334213D02*
Y335551D01*
X609252Y321260D02*
Y325787D01*
X605315Y329724D02*
X609252Y325787D01*
X594764Y333386D02*
Y335551D01*
Y333386D02*
X598425Y329724D01*
X605315D01*
X617717Y314567D02*
X620079Y316929D01*
Y327756D01*
X614764Y333071D02*
X620079Y327756D01*
X614764Y333071D02*
Y335551D01*
X602756Y313976D02*
X603346Y314567D01*
X594488Y313976D02*
X596457D01*
X602756D01*
X603346Y314567D02*
X617717D01*
X727559Y318898D02*
X732283D01*
X733268Y319882D01*
X717913Y314961D02*
X718504D01*
X714486Y320284D02*
X717913Y316856D01*
X714486Y320284D02*
Y325903D01*
X717913Y314961D02*
Y316856D01*
X704764Y335551D02*
X704838D01*
X714486Y325903D01*
X707776Y328642D02*
X711221Y325197D01*
X700689Y328642D02*
X707776D01*
X694764Y334567D02*
X700689Y328642D01*
X694764Y334567D02*
Y335551D01*
X711221Y314961D02*
Y322835D01*
Y325197D01*
X594488Y321679D02*
Y323031D01*
Y321679D02*
X595990Y320177D01*
X598740D02*
X600922Y317994D01*
X611676D01*
X614942Y321260D01*
X615158D01*
X595990Y320177D02*
X598740D01*
X586516Y312697D02*
Y327264D01*
X594764Y335512D01*
X592520Y312106D02*
Y313976D01*
X591634Y311221D02*
X592520Y312106D01*
X587992Y311221D02*
X591634D01*
X586516Y312697D02*
X587992Y311221D01*
D17*
X753937Y250000D02*
D03*
Y340551D02*
D03*
X525591D02*
D03*
Y250000D02*
D03*
D18*
X734764Y345551D02*
D03*
Y335551D02*
D03*
X724764Y345551D02*
D03*
Y335551D02*
D03*
X714764Y345551D02*
D03*
Y335551D02*
D03*
X704764Y345551D02*
D03*
Y335551D02*
D03*
X694764Y345551D02*
D03*
Y335551D02*
D03*
X684764Y345551D02*
D03*
Y335551D02*
D03*
X674764Y345551D02*
D03*
Y335551D02*
D03*
X664764Y345551D02*
D03*
Y335551D02*
D03*
X654764Y345551D02*
D03*
Y335551D02*
D03*
X644764Y345551D02*
D03*
Y335551D02*
D03*
X634764Y345551D02*
D03*
Y335551D02*
D03*
X624764Y345551D02*
D03*
Y335551D02*
D03*
X614764Y345551D02*
D03*
Y335551D02*
D03*
X604764Y345551D02*
D03*
Y335551D02*
D03*
X594764Y345551D02*
D03*
Y335551D02*
D03*
X584764Y345551D02*
D03*
Y335551D02*
D03*
X574764Y345551D02*
D03*
Y335551D02*
D03*
X564764Y345551D02*
D03*
Y335551D02*
D03*
X554764Y345551D02*
D03*
Y335551D02*
D03*
X544764Y345551D02*
D03*
D19*
Y335551D02*
D03*
D20*
X601378Y326772D02*
D03*
X583661Y322835D02*
D03*
X628937Y319882D02*
D03*
X594488Y297244D02*
D03*
X630905Y287402D02*
D03*
X724409Y313976D02*
D03*
Y327756D02*
D03*
X743110D02*
D03*
X713583Y305118D02*
D03*
X732579Y325787D02*
D03*
X745079Y314961D02*
D03*
X741142Y285433D02*
D03*
X701083Y284055D02*
D03*
X669291Y313976D02*
D03*
X657480Y295768D02*
D03*
X697835Y247047D02*
D03*
X673228Y265748D02*
D03*
X632874Y250000D02*
D03*
X578740Y264764D02*
D03*
X544291Y292323D02*
D03*
X565945Y308071D02*
D03*
X569882Y289370D02*
D03*
X607382Y278642D02*
D03*
X648622Y269488D02*
D03*
X654528Y323819D02*
D03*
X680118Y321850D02*
D03*
X678445Y285531D02*
D03*
X724409Y261811D02*
D03*
X745079Y273622D02*
D03*
X598425Y252953D02*
D03*
X547244Y263779D02*
D03*
X525591Y279528D02*
D03*
X520669Y311024D02*
D03*
X686122Y298425D02*
D03*
X640650Y304528D02*
D03*
X545276Y316929D02*
D03*
X698819Y321850D02*
D03*
X591831Y326870D02*
D03*
X616437Y327067D02*
D03*
M02*
