G04*
G04 #@! TF.GenerationSoftware,Altium Limited,CircuitStudio,1.5.1 (13)*
G04*
G04 Layer_Color=20142*
%FSLAX25Y25*%
%MOIN*%
G70*
G01*
G75*
%ADD18O,0.06000X0.08000*%
%ADD19R,0.06000X0.08000*%
%ADD24R,0.05131X0.04737*%
%ADD25R,0.04737X0.05131*%
G04:AMPARAMS|DCode=26|XSize=17.84mil|YSize=35.56mil|CornerRadius=6.46mil|HoleSize=0mil|Usage=FLASHONLY|Rotation=180.000|XOffset=0mil|YOffset=0mil|HoleType=Round|Shape=RoundedRectangle|*
%AMROUNDEDRECTD26*
21,1,0.01784,0.02264,0,0,180.0*
21,1,0.00492,0.03556,0,0,180.0*
1,1,0.01292,-0.00246,0.01132*
1,1,0.01292,0.00246,0.01132*
1,1,0.01292,0.00246,-0.01132*
1,1,0.01292,-0.00246,-0.01132*
%
%ADD26ROUNDEDRECTD26*%
%ADD27R,0.05524X0.01587*%
G04:AMPARAMS|DCode=28|XSize=39.89mil|YSize=18.24mil|CornerRadius=5.28mil|HoleSize=0mil|Usage=FLASHONLY|Rotation=180.000|XOffset=0mil|YOffset=0mil|HoleType=Round|Shape=RoundedRectangle|*
%AMROUNDEDRECTD28*
21,1,0.03989,0.00768,0,0,180.0*
21,1,0.02933,0.01824,0,0,180.0*
1,1,0.01056,-0.01467,0.00384*
1,1,0.01056,0.01467,0.00384*
1,1,0.01056,0.01467,-0.00384*
1,1,0.01056,-0.01467,-0.00384*
%
%ADD28ROUNDEDRECTD28*%
%ADD29R,0.05918X0.06706*%
%ADD30C,0.18517*%
D18*
X734764Y345551D02*
D03*
Y335551D02*
D03*
X724764Y345551D02*
D03*
Y335551D02*
D03*
X714764Y345551D02*
D03*
Y335551D02*
D03*
X704764Y345551D02*
D03*
Y335551D02*
D03*
X694764Y345551D02*
D03*
Y335551D02*
D03*
X684764Y345551D02*
D03*
Y335551D02*
D03*
X674764Y345551D02*
D03*
Y335551D02*
D03*
X664764Y345551D02*
D03*
Y335551D02*
D03*
X654764Y345551D02*
D03*
Y335551D02*
D03*
X644764Y345551D02*
D03*
Y335551D02*
D03*
X634764Y345551D02*
D03*
Y335551D02*
D03*
X624764Y345551D02*
D03*
Y335551D02*
D03*
X614764Y345551D02*
D03*
Y335551D02*
D03*
X604764Y345551D02*
D03*
Y335551D02*
D03*
X594764Y345551D02*
D03*
Y335551D02*
D03*
X584764Y345551D02*
D03*
Y335551D02*
D03*
X574764Y345551D02*
D03*
Y335551D02*
D03*
X564764Y345551D02*
D03*
Y335551D02*
D03*
X554764Y345551D02*
D03*
Y335551D02*
D03*
X544764Y345551D02*
D03*
D19*
Y335551D02*
D03*
D24*
X736614Y311024D02*
D03*
X729921D02*
D03*
X717913Y314961D02*
D03*
X711221D02*
D03*
X717913Y322835D02*
D03*
X711221D02*
D03*
D25*
X615158Y314567D02*
D03*
Y321260D02*
D03*
X609252Y314567D02*
D03*
Y321260D02*
D03*
X603346Y321260D02*
D03*
Y314567D02*
D03*
D26*
X596457Y313976D02*
D03*
X594488D02*
D03*
X592520D02*
D03*
X590551D02*
D03*
Y323031D02*
D03*
X592520D02*
D03*
X594488D02*
D03*
X596457D02*
D03*
D27*
X593504Y318504D02*
D03*
D28*
X738484Y316929D02*
D03*
Y318898D02*
D03*
Y320866D02*
D03*
Y322835D02*
D03*
X727067D02*
D03*
Y320866D02*
D03*
Y318898D02*
D03*
Y316929D02*
D03*
D29*
X732776Y319882D02*
D03*
D30*
X753937Y250000D02*
D03*
Y340551D02*
D03*
X525591D02*
D03*
Y250000D02*
D03*
M02*
