G04*
G04 #@! TF.GenerationSoftware,Altium Limited,CircuitStudio,1.5.1 (13)*
G04*
G04 Layer_Color=13948096*
%FSLAX25Y25*%
%MOIN*%
G70*
G01*
G75*
G36*
X638167Y313847D02*
X639618Y313658D01*
X640943Y313343D01*
X642269Y312901D01*
X643468Y312396D01*
X644540Y311828D01*
X645550Y311260D01*
X646496Y310693D01*
X647317Y310062D01*
X648074Y309494D01*
X648705Y308926D01*
X649210Y308421D01*
X649588Y308042D01*
X649904Y307664D01*
X650093Y307474D01*
X650156Y307411D01*
X651103Y306149D01*
X651860Y304824D01*
X652554Y303499D01*
X653185Y302111D01*
X653690Y300786D01*
X654131Y299398D01*
X654447Y298073D01*
X654762Y296811D01*
X654952Y295675D01*
X655141Y294602D01*
X655204Y293592D01*
X655330Y292772D01*
Y292078D01*
X655393Y291573D01*
Y291258D01*
Y291131D01*
X655330Y289302D01*
X655204Y287535D01*
X654952Y285894D01*
X654636Y284317D01*
X654258Y282865D01*
X653879Y281540D01*
X653437Y280341D01*
X652933Y279206D01*
X652491Y278196D01*
X652049Y277313D01*
X651671Y276619D01*
X651292Y275988D01*
X650976Y275483D01*
X650724Y275167D01*
X650598Y274915D01*
X650535Y274852D01*
X649588Y273779D01*
X648516Y272832D01*
X647443Y272012D01*
X646370Y271318D01*
X645234Y270750D01*
X644099Y270245D01*
X643026Y269804D01*
X641953Y269488D01*
X640943Y269236D01*
X640060Y269046D01*
X639240Y268920D01*
X638483Y268857D01*
X637915Y268794D01*
X637473Y268731D01*
X637094D01*
X635580Y268794D01*
X634192Y268983D01*
X632867Y269236D01*
X631542Y269551D01*
X630406Y269930D01*
X629270Y270372D01*
X628260Y270813D01*
X627377Y271318D01*
X626557Y271823D01*
X625800Y272265D01*
X625169Y272706D01*
X624664Y273085D01*
X624222Y273400D01*
X623970Y273716D01*
X623780Y273842D01*
X623717Y273905D01*
X626998Y278448D01*
X627629Y277691D01*
X628387Y276997D01*
X629081Y276429D01*
X629901Y275924D01*
X630658Y275483D01*
X631479Y275167D01*
X632236Y274852D01*
X632993Y274662D01*
X633687Y274473D01*
X634318Y274347D01*
X634949Y274221D01*
X635454Y274158D01*
X635895Y274095D01*
X636463D01*
X637473Y274158D01*
X638483Y274284D01*
X639366Y274536D01*
X640249Y274789D01*
X641827Y275546D01*
X642521Y275988D01*
X643152Y276429D01*
X643720Y276808D01*
X644225Y277250D01*
X644603Y277628D01*
X644982Y278007D01*
X645234Y278259D01*
X645424Y278512D01*
X645550Y278638D01*
X645613Y278701D01*
X646244Y279584D01*
X646749Y280594D01*
X647254Y281540D01*
X647632Y282550D01*
X648263Y284569D01*
X648705Y286525D01*
X648831Y287409D01*
X648957Y288229D01*
X649020Y288923D01*
X649083Y289554D01*
X649147Y290122D01*
Y290500D01*
Y290753D01*
Y290816D01*
X649083Y292267D01*
X649020Y293592D01*
X648831Y294917D01*
X648642Y296116D01*
X648326Y297252D01*
X648074Y298262D01*
X647758Y299271D01*
X647443Y300155D01*
X647127Y300912D01*
X646812Y301606D01*
X646496Y302174D01*
X646244Y302679D01*
X646055Y303057D01*
X645865Y303310D01*
X645802Y303499D01*
X645739Y303562D01*
X645045Y304446D01*
X644351Y305203D01*
X643594Y305897D01*
X642837Y306465D01*
X642079Y306907D01*
X641322Y307348D01*
X640565Y307664D01*
X639808Y307916D01*
X639177Y308105D01*
X638546Y308295D01*
X637978Y308421D01*
X637473Y308484D01*
X637094Y308547D01*
X635391D01*
X634381Y308484D01*
X633371Y308358D01*
X632488Y308232D01*
X631668Y308042D01*
X630974Y307916D01*
X630280Y307727D01*
X629712Y307538D01*
X629144Y307285D01*
X628702Y307096D01*
X628324Y306970D01*
X628071Y306780D01*
X627819Y306654D01*
X627629Y306528D01*
X627503Y306465D01*
X625484Y311576D01*
X626304Y312018D01*
X627125Y312333D01*
X628955Y312901D01*
X630784Y313343D01*
X632551Y313595D01*
X633435Y313721D01*
X634192Y313784D01*
X634886Y313847D01*
X635454D01*
X635959Y313911D01*
X636653D01*
X638167Y313847D01*
D02*
G37*
G36*
X571029Y301922D02*
X572101Y301732D01*
X573048Y301480D01*
X573931Y301101D01*
X574752Y300660D01*
X575509Y300218D01*
X576203Y299650D01*
X576771Y299145D01*
X577339Y298640D01*
X577780Y298136D01*
X578222Y297631D01*
X578538Y297189D01*
X578790Y296811D01*
X578979Y296558D01*
X579042Y296369D01*
X579106Y296306D01*
Y301417D01*
X584785D01*
Y269488D01*
X579106D01*
Y287724D01*
X578979Y289112D01*
X578727Y290437D01*
X578411Y291573D01*
X577970Y292520D01*
X577591Y293340D01*
X577212Y293908D01*
X576960Y294286D01*
X576897Y294413D01*
X576455Y294917D01*
X576014Y295359D01*
X575130Y295990D01*
X574247Y296495D01*
X573426Y296874D01*
X572732Y297063D01*
X572164Y297126D01*
X571786Y297189D01*
X571660D01*
X570966Y297126D01*
X570271Y297000D01*
X569640Y296747D01*
X569073Y296558D01*
X568631Y296306D01*
X568252Y296053D01*
X568000Y295927D01*
X567937Y295864D01*
X565539Y301417D01*
X566549Y301606D01*
X567432Y301732D01*
X568189Y301858D01*
X568820Y301922D01*
X569325Y301985D01*
X569956D01*
X571029Y301922D01*
D02*
G37*
G36*
X693632Y269488D02*
X686943D01*
X683788Y278701D01*
X667509D01*
X664480Y269488D01*
X657854D01*
X674323Y313721D01*
X675901D01*
X693632Y269488D01*
D02*
G37*
G36*
X608384Y301922D02*
X609330Y301858D01*
X610277Y301669D01*
X611097Y301480D01*
X611854Y301291D01*
X612359Y301164D01*
X612738Y301038D01*
X612801Y300975D01*
X612864D01*
X613874Y300596D01*
X614757Y300218D01*
X615514Y299839D01*
X616145Y299524D01*
X616650Y299208D01*
X616965Y298956D01*
X617218Y298830D01*
X617281Y298767D01*
X614946Y294034D01*
X614378Y294539D01*
X613747Y294981D01*
X612422Y295738D01*
X611097Y296243D01*
X609772Y296558D01*
X608573Y296811D01*
X608068Y296874D01*
X607627D01*
X607248Y296937D01*
X606743D01*
X605544Y296874D01*
X604472Y296621D01*
X603525Y296243D01*
X602705Y295738D01*
X602074Y295170D01*
X601506Y294476D01*
X601064Y293782D01*
X600686Y293088D01*
X600370Y292393D01*
X600181Y291699D01*
X599992Y291005D01*
X599929Y290437D01*
X599865Y289933D01*
X599802Y289554D01*
Y289302D01*
Y289239D01*
X600623Y289491D01*
X601380Y289680D01*
X602074Y289806D01*
X602705Y289933D01*
X603210D01*
X603588Y289996D01*
X603904D01*
X605103Y289933D01*
X606239Y289869D01*
X607311Y289680D01*
X608384Y289491D01*
X609330Y289239D01*
X610214Y288923D01*
X611034Y288608D01*
X611728Y288292D01*
X612422Y287977D01*
X612990Y287661D01*
X613495Y287409D01*
X613937Y287093D01*
X614252Y286904D01*
X614505Y286715D01*
X614631Y286651D01*
X614694Y286588D01*
X615451Y285957D01*
X616082Y285263D01*
X616650Y284569D01*
X617155Y283875D01*
X617533Y283181D01*
X617912Y282550D01*
X618417Y281225D01*
X618669Y280089D01*
X618795Y279647D01*
X618858Y279206D01*
X618922Y278827D01*
Y278575D01*
Y278448D01*
Y278385D01*
X618858Y277628D01*
X618795Y276934D01*
X618480Y275609D01*
X618038Y274473D01*
X617533Y273527D01*
X617092Y272706D01*
X616650Y272138D01*
X616334Y271760D01*
X616208Y271697D01*
Y271634D01*
X615703Y271129D01*
X615136Y270750D01*
X614000Y270056D01*
X612927Y269614D01*
X611917Y269236D01*
X611034Y269046D01*
X610340Y268983D01*
X610088Y268920D01*
X609709D01*
X608447Y268983D01*
X607248Y269110D01*
X606175Y269299D01*
X605103Y269614D01*
X604219Y269930D01*
X603336Y270308D01*
X602579Y270687D01*
X601885Y271066D01*
X601254Y271444D01*
X600749Y271886D01*
X600307Y272201D01*
X599929Y272517D01*
X599676Y272832D01*
X599487Y273022D01*
X599361Y273148D01*
X599298Y273211D01*
X598982Y272391D01*
X598603Y271697D01*
X598162Y271129D01*
X597783Y270687D01*
X597404Y270308D01*
X597089Y270056D01*
X596900Y269930D01*
X596837Y269867D01*
X596142Y269551D01*
X595322Y269299D01*
X594439Y269173D01*
X593555Y269046D01*
X592798Y268983D01*
X592167Y268920D01*
X591599D01*
Y271760D01*
X592041Y272075D01*
X592420Y272391D01*
X593051Y273211D01*
X593492Y274158D01*
X593808Y275041D01*
X593997Y275924D01*
X594060Y276619D01*
X594123Y276934D01*
Y277123D01*
Y277250D01*
Y277313D01*
Y288734D01*
X594186Y289996D01*
X594249Y291131D01*
X594439Y292204D01*
X594628Y293214D01*
X594880Y294097D01*
X595133Y294917D01*
X595385Y295675D01*
X595701Y296306D01*
X596016Y296937D01*
X596269Y297378D01*
X596521Y297820D01*
X596773Y298199D01*
X596963Y298451D01*
X597152Y298640D01*
X597215Y298704D01*
X597278Y298767D01*
X597909Y299335D01*
X598603Y299839D01*
X599361Y300281D01*
X600181Y300660D01*
X601885Y301227D01*
X603525Y301606D01*
X604282Y301732D01*
X605040Y301795D01*
X605671Y301858D01*
X606239Y301922D01*
X606680Y301985D01*
X607374D01*
X608384Y301922D01*
D02*
G37*
G36*
X541372Y299650D02*
X542444Y300407D01*
X543643Y300975D01*
X544905Y301417D01*
X546104Y301669D01*
X547177Y301858D01*
X547682Y301922D01*
X548060D01*
X548439Y301985D01*
X548881D01*
X549953Y301922D01*
X551026Y301795D01*
X552036Y301543D01*
X552982Y301164D01*
X554749Y300344D01*
X555506Y299902D01*
X556200Y299461D01*
X556831Y298956D01*
X557399Y298514D01*
X557904Y298073D01*
X558346Y297694D01*
X558661Y297378D01*
X558914Y297126D01*
X559040Y296937D01*
X559103Y296874D01*
X559860Y295927D01*
X560491Y294917D01*
X561059Y293845D01*
X561564Y292835D01*
X561942Y291826D01*
X562321Y290753D01*
X562826Y288860D01*
X562952Y287977D01*
X563078Y287156D01*
X563204Y286462D01*
X563267Y285831D01*
X563331Y285326D01*
Y284948D01*
Y284695D01*
Y284632D01*
X563267Y283307D01*
X563141Y282045D01*
X563015Y280909D01*
X562763Y279837D01*
X562510Y278764D01*
X562195Y277817D01*
X561816Y276997D01*
X561501Y276177D01*
X561185Y275483D01*
X560807Y274915D01*
X560491Y274347D01*
X560239Y273905D01*
X559986Y273590D01*
X559797Y273337D01*
X559734Y273211D01*
X559671Y273148D01*
X558977Y272391D01*
X558156Y271760D01*
X557399Y271192D01*
X556579Y270687D01*
X555758Y270308D01*
X554938Y269930D01*
X553424Y269425D01*
X552730Y269299D01*
X552036Y269173D01*
X551468Y269046D01*
X550963Y268983D01*
X550521Y268920D01*
X549953D01*
X548944Y268983D01*
X547997Y269046D01*
X547051Y269173D01*
X546230Y269362D01*
X545473Y269614D01*
X544779Y269867D01*
X544148Y270119D01*
X543580Y270372D01*
X543075Y270624D01*
X542634Y270876D01*
X542255Y271129D01*
X541940Y271381D01*
X541687Y271570D01*
X541498Y271697D01*
X541435Y271823D01*
X541372D01*
Y269488D01*
X535693D01*
Y314478D01*
X541372D01*
Y299650D01*
D02*
G37*
G36*
X731618Y268920D02*
X729725D01*
X720071Y299019D01*
X709659Y268920D01*
X707766D01*
X694200Y313153D01*
X700384D01*
X709344Y282739D01*
X718746Y313153D01*
X720828D01*
X730419Y282676D01*
X739190Y313153D01*
X745374D01*
X731618Y268920D01*
D02*
G37*
%LPC*%
G36*
X675396Y302300D02*
X669212Y283055D01*
X682211D01*
X675396Y302300D01*
D02*
G37*
G36*
X547682Y297189D02*
X547240D01*
X546546Y297126D01*
X545915Y297063D01*
X544779Y296684D01*
X543770Y296180D01*
X542886Y295612D01*
X542255Y294981D01*
X541750Y294476D01*
X541498Y294097D01*
X541372Y294034D01*
Y293971D01*
Y276240D01*
X541624Y275924D01*
X541940Y275546D01*
X542760Y274978D01*
X543139Y274789D01*
X543454Y274599D01*
X543706Y274536D01*
X543770Y274473D01*
X544401Y274221D01*
X545031Y274031D01*
X545599Y273842D01*
X546041Y273779D01*
X546420Y273716D01*
X546735Y273653D01*
X546988D01*
X547934Y273716D01*
X548817Y273779D01*
X550395Y274158D01*
X551783Y274726D01*
X552982Y275420D01*
X553992Y276303D01*
X554875Y277313D01*
X555569Y278322D01*
X556074Y279395D01*
X556516Y280468D01*
X556831Y281477D01*
X557084Y282487D01*
X557210Y283370D01*
X557336Y284064D01*
X557399Y284632D01*
Y285011D01*
Y285137D01*
X557336Y286084D01*
X557273Y287030D01*
X556957Y288671D01*
X556516Y290185D01*
X556011Y291447D01*
X555758Y291952D01*
X555506Y292457D01*
X555254Y292835D01*
X555064Y293151D01*
X554875Y293466D01*
X554749Y293655D01*
X554623Y293719D01*
Y293782D01*
X554055Y294413D01*
X553487Y294917D01*
X552856Y295359D01*
X552288Y295738D01*
X551026Y296369D01*
X549890Y296747D01*
X548817Y297000D01*
X548376Y297063D01*
X547997Y297126D01*
X547682Y297189D01*
D02*
G37*
G36*
X604030Y285768D02*
X603147D01*
X602516Y285705D01*
X601317Y285516D01*
X600686Y285389D01*
X600244Y285263D01*
X599929Y285200D01*
X599802D01*
Y277502D01*
X600433Y276808D01*
X601064Y276177D01*
X601758Y275609D01*
X602389Y275104D01*
X603084Y274726D01*
X603715Y274410D01*
X604850Y273905D01*
X605923Y273590D01*
X606365Y273527D01*
X606743Y273464D01*
X606996Y273400D01*
X607437D01*
X608447Y273464D01*
X609330Y273590D01*
X610151Y273842D01*
X610782Y274158D01*
X611350Y274536D01*
X611854Y274978D01*
X612233Y275420D01*
X612485Y275861D01*
X612738Y276303D01*
X612927Y276745D01*
X613179Y277565D01*
Y277881D01*
X613243Y278133D01*
Y278259D01*
Y278322D01*
X613116Y279395D01*
X612801Y280404D01*
X612422Y281288D01*
X611917Y282108D01*
X611413Y282676D01*
X611034Y283181D01*
X610719Y283433D01*
X610592Y283559D01*
X609520Y284317D01*
X608321Y284822D01*
X607185Y285200D01*
X606049Y285516D01*
X605103Y285642D01*
X604661Y285705D01*
X604282D01*
X604030Y285768D01*
D02*
G37*
%LPD*%
M02*
