G04*
G04 #@! TF.GenerationSoftware,Altium Limited,CircuitStudio,1.5.1 (13)*
G04*
G04 Layer_Color=8150272*
%FSLAX25Y25*%
%MOIN*%
G70*
G01*
G75*
%ADD18O,0.06000X0.08000*%
%ADD19R,0.06000X0.08000*%
%ADD30C,0.18517*%
D18*
X734764Y345551D02*
D03*
Y335551D02*
D03*
X724764Y345551D02*
D03*
Y335551D02*
D03*
X714764Y345551D02*
D03*
Y335551D02*
D03*
X704764Y345551D02*
D03*
Y335551D02*
D03*
X694764Y345551D02*
D03*
Y335551D02*
D03*
X684764Y345551D02*
D03*
Y335551D02*
D03*
X674764Y345551D02*
D03*
Y335551D02*
D03*
X664764Y345551D02*
D03*
Y335551D02*
D03*
X654764Y345551D02*
D03*
Y335551D02*
D03*
X644764Y345551D02*
D03*
Y335551D02*
D03*
X634764Y345551D02*
D03*
Y335551D02*
D03*
X624764Y345551D02*
D03*
Y335551D02*
D03*
X614764Y345551D02*
D03*
Y335551D02*
D03*
X604764Y345551D02*
D03*
Y335551D02*
D03*
X594764Y345551D02*
D03*
Y335551D02*
D03*
X584764Y345551D02*
D03*
Y335551D02*
D03*
X574764Y345551D02*
D03*
Y335551D02*
D03*
X564764Y345551D02*
D03*
Y335551D02*
D03*
X554764Y345551D02*
D03*
Y335551D02*
D03*
X544764Y345551D02*
D03*
D19*
Y335551D02*
D03*
D30*
X753937Y250000D02*
D03*
Y340551D02*
D03*
X525591D02*
D03*
Y250000D02*
D03*
M02*
