G04*
G04 #@! TF.GenerationSoftware,Altium Limited,CircuitStudio,1.5.1 (13)*
G04*
G04 Layer_Color=15065295*
%FSLAX25Y25*%
%MOIN*%
G70*
G01*
G75*
%ADD16C,0.01000*%
%ADD21C,0.00787*%
%ADD22C,0.00394*%
%ADD23C,0.00500*%
D16*
X598819Y323425D02*
G03*
X598813Y323360I-394J0D01*
G01*
X734382Y305773D02*
X733858Y306298D01*
X732808D01*
X732283Y305773D01*
Y303674D01*
X732808Y303150D01*
X733858D01*
X734382Y303674D01*
X735432Y303150D02*
X736482D01*
X735957D01*
Y306298D01*
X735432Y305773D01*
X604002Y306956D02*
X604527Y307481D01*
Y308530D01*
X604002Y309055D01*
X601903D01*
X601378Y308530D01*
Y307481D01*
X601903Y306956D01*
X601378Y303807D02*
Y305907D01*
X603477Y303807D01*
X604002D01*
X604527Y304332D01*
Y305382D01*
X604002Y305907D01*
X542323Y324803D02*
Y327952D01*
X543897D01*
X544422Y327427D01*
Y326377D01*
X543897Y325853D01*
X542323D01*
X545471Y327952D02*
X546521D01*
X545996D01*
Y324803D01*
X545471D01*
X546521D01*
X613189Y309055D02*
X616338D01*
Y307481D01*
X615813Y306956D01*
X614763D01*
X614239Y307481D01*
Y309055D01*
Y308006D02*
X613189Y306956D01*
Y305907D02*
Y304857D01*
Y305382D01*
X616338D01*
X615813Y305907D01*
X607283Y309055D02*
X610432D01*
Y307481D01*
X609907Y306956D01*
X608858D01*
X608333Y307481D01*
Y309055D01*
Y308006D02*
X607283Y306956D01*
Y303807D02*
Y305907D01*
X609382Y303807D01*
X609907D01*
X610432Y304332D01*
Y305382D01*
X609907Y305907D01*
X701772Y320866D02*
Y324015D01*
X703346D01*
X703871Y323490D01*
Y322441D01*
X703346Y321916D01*
X701772D01*
X702821D02*
X703871Y320866D01*
X704920Y323490D02*
X705445Y324015D01*
X706495D01*
X707019Y323490D01*
Y322965D01*
X706495Y322441D01*
X705970D01*
X706495D01*
X707019Y321916D01*
Y321391D01*
X706495Y320866D01*
X705445D01*
X704920Y321391D01*
X701772Y312992D02*
Y316141D01*
X703346D01*
X703871Y315616D01*
Y314566D01*
X703346Y314042D01*
X701772D01*
X702821D02*
X703871Y312992D01*
X706495D02*
Y316141D01*
X704920Y314566D01*
X707019D01*
X583466Y315945D02*
X586089D01*
X586614Y316470D01*
Y317519D01*
X586089Y318044D01*
X583466D01*
X586614Y319093D02*
Y320143D01*
Y319618D01*
X583466D01*
X583990Y319093D01*
X735138Y328936D02*
Y326312D01*
X735663Y325787D01*
X736712D01*
X737237Y326312D01*
Y328936D01*
X740385Y325787D02*
X738286D01*
X740385Y327887D01*
Y328411D01*
X739861Y328936D01*
X738811D01*
X738286Y328411D01*
D21*
X743347Y316929D02*
G03*
X743347Y316929I-394J0D01*
G01*
X742854D02*
G03*
X742854Y316929I-394J0D01*
G01*
X739961Y309449D02*
Y312598D01*
X721260Y313386D02*
Y316535D01*
Y321260D02*
Y324410D01*
X613583Y311221D02*
X616732D01*
X607677D02*
X610827D01*
X601772Y324606D02*
X604921D01*
D22*
X598425Y313583D02*
Y323425D01*
X588583D02*
X598425D01*
X588583Y313583D02*
X598425D01*
X588583D02*
Y323425D01*
D23*
X539764Y330551D02*
Y350551D01*
Y330551D02*
X739764D01*
Y350551D01*
X539764D02*
X739764D01*
X726870Y315158D02*
X738681D01*
X726870Y324606D02*
X738681D01*
M02*
