M48
;Layer_Color=6321
;FILE_FORMAT=2:5
INCH,LZ
;TYPE=PLATED
T1F00S00C0.01968
T2F00S00C0.04000
T3F00S00C0.11811
%
T01
X0632874Y025
X0648622Y0269488
X0673228Y0265748
X0678445Y0285531
X0686122Y0298425
X0701083Y0284055
X0713583Y0305118
X0741142Y0285433
X0745079Y0273622
X0724409Y0261811
X0697835Y0247047
X065748Y0295768
X064065Y0304528
X0630905Y0287402
X0607382Y0278642
X0594488Y0297244
X0569882Y028937
X0565945Y0308071
X0544291Y0292323
X0547244Y0263779
X057874Y0264764
X0598425Y0252953
X0525591Y0279528
X0520669Y0311024
X0545276Y0316929
X0583661Y0322835
X0591831Y032687
X0601378Y0326772
X0616437Y0327067
X0628937Y0319882
X0654528Y0323819
X0669291Y0313976
X0680118Y032185
X0698819
X0724409Y0327756
X0732579Y0325787
X074311Y0327756
X0745079Y0314961
X0724409Y0313976
T02
X0544764Y0335551
X0554764
X0564764
X0574764
X0584764
X0594764
X0604764
X0614764
X0624764
Y0345551
X0614764
X0604764
X0594764
X0584764
X0574764
X0564764
X0554764
X0544764
X0634764
X0644764
X0654764
X0664764
X0674764
X0684764
X0694764
X0704764
X0714764
X0724764
X0734764
Y0335551
X0724764
X0714764
X0704764
X0694764
X0684764
X0674764
X0664764
X0654764
X0644764
X0634764
T03
X0753937Y025
X0525591
Y0340551
X0753937
M30
